<?xml version="1.0" encoding="UTF-8"?>
<svg id="Layer_2" data-name="Layer 2" xmlns="http://www.w3.org/2000/svg" viewBox="0 0 2005.95 627.77">
  <defs>
    <style>
      .cls-1 {
        fill: #fff;
      }

      .cls-2 {
        fill: #ffc420;
      }

      .cls-3 {
        fill: #ff685b;
      }
    </style>
  </defs>
  <g id="_Слой_1" data-name="Слой 1">
    <g>
      <g>
        <path class="cls-1" d="M709.78,473.11c-26.62,0-52.13-3.56-76.52-10.69-24.4-7.13-44.05-16.4-58.94-27.81l26.14-57.98c14.26,10.14,31.13,18.46,50.62,24.95,19.49,6.5,39.22,9.74,59.18,9.74,15.21,0,27.49-1.5,36.84-4.51,9.34-3.01,16.24-7.21,20.68-12.6,4.43-5.38,6.66-11.56,6.66-18.54,0-8.86-3.49-15.92-10.46-21.15-6.97-5.23-16.16-9.51-27.57-12.83-11.4-3.33-24-6.49-37.78-9.51-13.78-3-27.57-6.73-41.36-11.17-13.78-4.43-26.38-10.14-37.78-17.11-11.41-6.97-20.68-16.16-27.81-27.57-7.13-11.41-10.69-25.98-10.69-43.73,0-19.01,5.14-36.36,15.44-52.05,10.29-15.69,25.82-28.2,46.58-37.55,20.75-9.34,46.82-14.02,78.19-14.02,20.92,0,41.51,2.46,61.79,7.37,20.28,4.92,38.18,12.28,53.71,22.1l-23.77,58.46c-15.53-8.87-31.06-15.45-46.58-19.73-15.53-4.28-30.74-6.42-45.63-6.42s-27.09,1.75-36.6,5.23c-9.51,3.49-16.32,8.01-20.44,13.55-4.12,5.55-6.18,11.96-6.18,19.25,0,8.55,3.48,15.45,10.46,20.68,6.96,5.23,16.16,9.43,27.57,12.6,11.41,3.17,24.01,6.34,37.79,9.51,13.78,3.17,27.57,6.82,41.35,10.93,13.78,4.12,26.38,9.67,37.79,16.63,11.41,6.97,20.68,16.16,27.8,27.57,7.13,11.41,10.7,25.84,10.7,43.26,0,18.7-5.23,35.81-15.68,51.33-10.46,15.53-26.07,28.05-46.82,37.55-20.76,9.51-46.98,14.26-78.67,14.26Z"/>
        <path class="cls-1" d="M1053.91,207.88c20.27,0,38.42,4.04,54.42,12.12,16,8.08,28.59,20.44,37.78,37.07,9.19,16.64,13.78,37.95,13.78,63.93v146.4h-74.15v-134.99c0-20.6-4.52-35.8-13.54-45.63-9.03-9.82-21.79-14.73-38.26-14.73-11.72,0-22.26,2.46-31.61,7.37-9.35,4.92-16.63,12.44-21.87,22.58-5.23,10.14-7.84,23.14-7.84,38.98v126.43h-74.15v-255.72h70.82v70.82l-13.31-21.39c9.19-17.11,22.34-30.26,39.45-39.45,17.11-9.19,36.6-13.79,58.46-13.79Z"/>
        <path class="cls-1" d="M1263.99,176.04c-13.63,0-24.72-3.96-33.27-11.88-8.56-7.92-12.83-17.74-12.83-29.47s4.28-21.54,12.83-29.47c8.56-7.92,19.64-11.88,33.27-11.88s24.72,3.73,33.27,11.17c8.55,7.45,12.83,17.04,12.83,28.76,0,12.36-4.2,22.58-12.6,30.66-8.4,8.08-19.57,12.12-33.51,12.12ZM1226.92,467.41v-255.72h74.15v255.72h-74.15Z"/>
        <path class="cls-1" d="M1369.98,559.62V211.69h70.82v52.28l-1.43,76.05,4.75,75.57v144.02h-74.15ZM1521.13,471.21c-21.55,0-40.4-4.75-56.56-14.26-16.16-9.51-28.76-24-37.79-43.49s-13.55-44.12-13.55-73.91,4.28-54.81,12.83-74.15c8.56-19.33,20.92-33.75,37.07-43.25,16.16-9.51,35.49-14.26,57.99-14.26,24.08,0,45.71,5.47,64.88,16.4,19.17,10.93,34.38,26.22,45.63,45.87,11.24,19.65,16.87,42.78,16.87,69.39s-5.63,50.23-16.87,69.87c-11.25,19.65-26.46,34.86-45.63,45.63-19.17,10.77-40.8,16.16-64.88,16.16ZM1508.3,410.37c12.36,0,23.37-2.85,33.03-8.55,9.67-5.71,17.43-13.86,23.29-24.48,5.86-10.61,8.8-23.21,8.8-37.79s-2.94-27.57-8.8-38.02c-5.86-10.46-13.63-18.54-23.29-24.24s-20.68-8.56-33.03-8.56-23.45,2.85-33.27,8.56c-9.82,5.7-17.58,13.78-23.29,24.24-5.71,10.46-8.56,23.14-8.56,38.02s2.85,27.18,8.56,37.79c5.7,10.62,13.46,18.77,23.29,24.48,9.82,5.7,20.92,8.55,33.27,8.55Z"/>
        <path class="cls-1" d="M1735.02,176.04c-13.63,0-24.72-3.96-33.27-11.88-8.56-7.92-12.83-17.74-12.83-29.47s4.28-21.54,12.83-29.47c8.56-7.92,19.64-11.88,33.27-11.88s24.72,3.73,33.27,11.17c8.55,7.45,12.83,17.04,12.83,28.76,0,12.36-4.2,22.58-12.6,30.66-8.4,8.08-19.57,12.12-33.51,12.12ZM1697.94,467.41v-255.72h74.15v255.72h-74.15Z"/>
        <path class="cls-1" d="M1810.59,274.43v-57.04h177.3v57.04h-177.3ZM1945.58,471.21c-30.11,0-53.55-7.68-70.34-23.05-16.8-15.37-25.19-38.26-25.19-68.68v-224.35h74.15v223.4c0,10.77,2.85,19.09,8.55,24.95,5.71,5.87,13.47,8.79,23.29,8.79,11.72,0,21.7-3.16,29.95-9.5l19.96,52.28c-7.6,5.39-16.72,9.43-27.33,12.12-10.62,2.69-21.63,4.04-33.04,4.04Z"/>
      </g>
      <g>
        <path class="cls-2" d="M116.89,438.9l-72.71-72.71c-21.75-21.75-36.67-48.66-41.99-75.78-6.63-33.74,1.99-65.52,23.66-87.18L203.23,25.84c21.66-21.67,53.43-30.29,87.19-23.66,27.12,5.33,54.03,20.24,75.78,41.99l72.71,72.71-69.67,69.67-72.71-72.71c-11.01-11.01-21.78-14.68-26.69-15.26l-171.23,171.24c.58,4.91,4.25,15.67,15.26,26.69l72.71,72.71-69.67,69.67Z"/>
        <path class="cls-3" d="M215.4,627.77c-7.18,0-14.53-.72-21.99-2.18-27.12-5.33-54.03-20.25-75.78-42l-72.71-72.71,69.67-69.67,72.71,72.71c11.01,11.01,21.78,14.68,26.69,15.26l171.23-171.23c-.58-4.91-4.25-15.68-15.26-26.69l-72.71-72.71,69.67-69.67,72.71,72.71c21.75,21.75,36.67,48.66,41.99,75.78,6.63,33.74-1.99,65.52-23.66,87.19l-177.38,177.38c-16.88,16.88-39.9,25.84-65.2,25.84Z"/>
      </g>
    </g>
  </g>
</svg>